<svg width="242" height="103" viewBox="0 0 242 103" fill="none" xmlns="http://www.w3.org/2000/svg">
<path d="M22.7558 1.50908C27.1431 1.50908 30.9531 2.24799 34.1858 3.72581C37.4186 5.15745 39.9124 7.23563 41.6673 9.96036C43.4222 12.6389 44.2997 15.8024 44.2997 19.4507C44.2997 23.0991 43.4222 26.2625 41.6673 28.9411C39.9124 31.6196 37.4186 33.6978 34.1858 35.1756C30.9531 36.6073 27.1431 37.3231 22.7558 37.3231H14.3046V50H0.588563V1.50908H22.7558ZM21.9246 26.5165C24.7417 26.5165 26.866 25.9162 28.2977 24.7155C29.7293 23.4685 30.4451 21.7136 30.4451 19.4507C30.4451 17.1878 29.7293 15.4329 28.2977 14.186C26.866 12.9391 24.7417 12.3156 21.9246 12.3156H14.3046V26.5165H21.9246ZM68.7324 50.9698C61.528 50.9698 55.9169 49.0071 51.8991 45.0816C47.9275 41.1562 45.9416 35.5913 45.9416 28.3869V1.50908H59.6576V27.9713C59.6576 35.7298 62.7287 39.6091 68.8709 39.6091C74.9669 39.6091 78.0149 35.7298 78.0149 27.9713V1.50908H91.5231V28.3869C91.5231 35.5913 89.5142 41.1562 85.4964 45.0816C81.5247 49.0071 75.9367 50.9698 68.7324 50.9698ZM142.794 1.50908V50H131.503L110.097 24.1613V50H96.6585V1.50908H107.95L129.355 27.3478V1.50908H142.794ZM172.489 50.9698C167.409 50.9698 162.837 49.9076 158.773 47.7833C154.755 45.6127 151.592 42.6109 149.282 38.7778C146.973 34.9447 145.819 30.6036 145.819 25.7545C145.819 20.9054 146.973 16.5644 149.282 12.7313C151.592 8.89817 154.755 5.91945 158.773 3.79508C162.837 1.62454 167.409 0.539264 172.489 0.539264C176.922 0.539264 180.917 1.32436 184.473 2.89454C188.029 4.46472 190.985 6.72763 193.34 9.68327L184.612 17.5804C181.471 13.7934 177.661 11.9 173.182 11.9C170.549 11.9 168.194 12.4773 166.116 13.6318C164.084 14.7864 162.49 16.4258 161.336 18.5502C160.228 20.6284 159.673 23.0298 159.673 25.7545C159.673 28.4793 160.228 30.9038 161.336 33.0282C162.49 35.1064 164.084 36.7227 166.116 37.8773C168.194 39.0318 170.549 39.6091 173.182 39.6091C177.661 39.6091 181.471 37.7156 184.612 33.9287L193.34 41.8258C190.985 44.7815 188.029 47.0444 184.473 48.6145C180.917 50.1847 176.922 50.9698 172.489 50.9698ZM241.435 1.50908V50H227.719V31.0885H209.015V50H195.299V1.50908H209.015V19.7278H227.719V1.50908H241.435ZM29.2653 102.97C25.3399 102.97 21.5299 102.485 17.8353 101.515C14.1408 100.545 11.1389 99.2522 8.82985 97.6358L13.3326 87.522C15.5031 88.9536 18.02 90.1082 20.8833 90.9856C23.7466 91.8631 26.5637 92.3018 29.3346 92.3018C34.5993 92.3018 37.2317 90.9856 37.2317 88.3533C37.2317 86.9678 36.4697 85.9518 34.9457 85.3053C33.4679 84.6125 31.0664 83.8967 27.7413 83.1578C24.0929 82.3727 21.0449 81.5415 18.5973 80.664C16.1497 79.7404 14.0484 78.2856 12.2935 76.2998C10.5386 74.314 9.66112 71.6354 9.66112 68.2642C9.66112 65.3085 10.4693 62.6531 12.0857 60.2978C13.702 57.8964 16.1035 56.0029 19.29 54.6174C22.5228 53.232 26.4713 52.5393 31.1357 52.5393C34.3222 52.5393 37.4626 52.9087 40.5568 53.6476C43.6509 54.3404 46.3757 55.3794 48.7309 56.7649L44.5053 66.948C39.8871 64.4542 35.4075 63.2073 31.0664 63.2073C28.3417 63.2073 26.3559 63.6229 25.1089 64.4542C23.862 65.2393 23.2386 66.2784 23.2386 67.5714C23.2386 68.8645 23.9775 69.8344 25.4553 70.4809C26.9331 71.1274 29.3115 71.7971 32.5904 72.4898C36.2849 73.2749 39.3329 74.1293 41.7344 75.0529C44.182 75.9304 46.2833 77.362 48.0382 79.3478C49.8393 81.2875 50.7399 83.9429 50.7399 87.3142C50.7399 90.2236 49.9317 92.856 48.3153 95.2113C46.6989 97.5665 44.2744 99.46 41.0417 100.892C37.8089 102.277 33.8835 102.97 29.2653 102.97ZM62.5644 64.3849H47.6707V53.5091H91.1048V64.3849H76.2804V102H62.5644V64.3849ZM115.835 102.97C110.709 102.97 106.091 101.885 101.981 99.714C97.9166 97.5435 94.7069 94.5416 92.3517 90.7085C90.0426 86.8755 88.888 82.5575 88.888 77.7545C88.888 72.9516 90.0426 68.6336 92.3517 64.8005C94.7069 60.9674 97.9166 57.9656 101.981 55.7951C106.091 53.6245 110.709 52.5393 115.835 52.5393C120.961 52.5393 125.556 53.6245 129.62 55.7951C133.731 57.9656 136.94 60.9674 139.249 64.8005C141.605 68.6336 142.782 72.9516 142.782 77.7545C142.782 82.5575 141.605 86.8755 139.249 90.7085C136.94 94.5416 133.731 97.5435 129.62 99.714C125.556 101.885 120.961 102.97 115.835 102.97ZM115.835 91.6091C118.283 91.6091 120.499 91.0318 122.485 89.8773C124.471 88.7227 126.041 87.1064 127.196 85.0282C128.35 82.9038 128.928 80.4793 128.928 77.7545C128.928 75.0298 128.35 72.6284 127.196 70.5502C126.041 68.4258 124.471 66.7864 122.485 65.6318C120.499 64.4773 118.283 63.9 115.835 63.9C113.387 63.9 111.171 64.4773 109.185 65.6318C107.199 66.7864 105.629 68.4258 104.474 70.5502C103.32 72.6284 102.743 75.0298 102.743 77.7545C102.743 80.4793 103.32 82.9038 104.474 85.0282C105.629 87.1064 107.199 88.7227 109.185 89.8773C111.171 91.0318 113.387 91.6091 115.835 91.6091ZM167.007 89.1153H159.526V102H145.81V53.5091H167.977C172.364 53.5091 176.174 54.248 179.407 55.7258C182.64 57.1574 185.133 59.2356 186.888 61.9604C188.643 64.6389 189.521 67.8024 189.521 71.4507C189.521 74.9605 188.689 78.0316 187.027 80.664C185.411 83.2502 183.078 85.2822 180.03 86.76L190.491 102H175.805L167.007 89.1153ZM175.666 71.4507C175.666 69.1878 174.95 67.4329 173.519 66.186C172.087 64.9391 169.963 64.3156 167.146 64.3156H159.526V78.5165H167.146C169.963 78.5165 172.087 77.9162 173.519 76.7155C174.95 75.4685 175.666 73.7136 175.666 71.4507ZM231.863 91.4013V102H192.931V53.5091H230.962V64.1078H206.509V72.282H228.053V82.5344H206.509V91.4013H231.863Z" fill="white"/>
</svg>
